<?xml version="1.0" encoding="utf-8"?>
<!-- Generator: Adobe Illustrator 21.0.2, SVG Export Plug-In . SVG Version: 6.00 Build 0)  -->
<svg version="1.1" id="Layer_1" xmlns="http://www.w3.org/2000/svg" xmlns:xlink="http://www.w3.org/1999/xlink" x="0px" y="0px"
	 viewBox="0 0 542 82.9" style="enable-background:new 0 0 542 82.9;" xml:space="preserve">
<style type="text/css">
	.st0{fill:#77BA4E;}
	.st1{fill:#001689;}
	.st2{fill:#63A70A;}
</style>
<g>
	<g>
		<path class="st0" d="M20.9,17.8c0,1.8-1.5,3.3-3.3,3.3H3.3c-1.8,0-3.3-1.5-3.3-3.3V9.9c0-1.8,1.5-3.3,3.3-3.3h14.3
			c1.8,0,3.3,1.5,3.3,3.3V17.8z"/>
		<path class="st0" d="M83.2,73.3c0,1.8-1.5,3.3-3.3,3.3H65.6c-1.8,0-3.3-1.5-3.3-3.3v-7.9c0-1.8,1.5-3.3,3.3-3.3h14.3
			c1.8,0,3.3,1.5,3.3,3.3V73.3z"/>
		<path class="st0" d="M17.6,62.1c1.8,0,3.3,1.5,3.3,3.3v14.3c0,1.8-1.5,3.3-3.3,3.3H9.7c-1.8,0-3.3-1.5-3.3-3.3V65.4
			c0-1.8,1.5-3.3,3.3-3.3H17.6z"/>
		<path class="st0" d="M73.5,0c1.8,0,3.3,1.5,3.3,3.3v14.3c0,1.8-1.5,3.3-3.3,3.3h-7.9c-1.8,0-3.3-1.5-3.3-3.3V3.3
			c0-1.8,1.5-3.3,3.3-3.3H73.5z"/>
		<path class="st1" d="M69.4,31.2H52V13.7c0-1.8-1.5-3.3-3.3-3.3H34.2c-1.8,0-3.3,1.5-3.3,3.3v17.5H13.4c-1.8,0-3.3,1.5-3.3,3.3V49
			c0,1.8,1.5,3.3,3.3,3.3h17.5v17.5c0,1.8,1.5,3.3,3.3,3.3h14.5c1.8,0,3.3-1.5,3.3-3.3V52.2h17.5c1.8,0,3.3-1.5,3.3-3.3V34.5
			C72.7,32.7,71.2,31.2,69.4,31.2z"/>
	</g>
	<g>
		<g>
			<path class="st2" d="M384.7,69.1c-4.5,0-8.7-0.7-12.3-2.1c-3.7-1.4-6.8-3.2-9.4-5.5c-2.6-2.3-4.6-5-6-8c-1.4-3-2.1-6.2-2.1-9.4
				c0-3.4,0.7-6.7,2.1-9.7c1.4-3,3.5-5.7,6.2-8c2.7-2.2,6.1-4,10.1-5.3c4-1.3,8.7-1.9,14-1.9c3.8,0,7.5,0.4,10.9,1.2
				c3.4,0.8,6.4,1.9,8.9,3.3c2.6,1.4,4.7,3.1,6.2,5.1c1.6,2,2.6,4.2,2.8,6.7l0.1,0.9h-7.3c-4.2,0-7.3-1.1-9.3-3.2
				c-0.8-0.9-1.8-1.6-3-2.3c-1.2-0.6-2.7-1.2-4.3-1.6c-1.6-0.4-3.4-0.6-5.1-0.6c-5.2,0-9.4,1.4-12.5,4.1c-3.1,2.7-4.6,6.6-4.6,11.8
				c0,1.8,0.3,3.6,1,5.4c0.6,1.8,1.7,3.4,3,4.8c1.4,1.4,3.2,2.6,5.3,3.5c2.2,0.9,4.8,1.4,7.7,1.4c2.1,0,4.1-0.3,5.9-0.8
				c1.8-0.5,3.4-1.2,4.8-2.2c1.3-0.9,2.4-1.9,3.1-3.1c0.6-0.9,0.9-1.8,1-2.8H396c-7.3,0-7.3-6.3-7.3-6.3v-2.8h27.5v26h-3.9
				c-4.3,0-7.1-2.7-8.3-4.1c-1.6,1.7-4.1,3-7.2,4C393.2,68.6,389.2,69.1,384.7,69.1z"/>
			<path class="st2" d="M510.7,70.7c-9.3,0-16.5-1.4-21.3-4.1c-5-2.9-7.7-7.2-8-12.8l-0.1-1.5H497l0,1.4c0,1.8,1.1,3.2,3.1,4.3
				c2.3,1.2,5.3,1.9,8.9,1.9c3.9,0,6.8-0.5,8.7-1.5c2.2-1.1,2.4-2.4,2.4-3.2c0-0.5-0.1-1-0.3-1.5c-0.1-0.4-0.5-0.7-0.9-1.1
				c-0.6-0.4-1.5-0.8-2.6-1.2c-1.2-0.4-2.8-0.7-4.7-1c-4.8-0.7-9-1.5-12.5-2.3c-3.6-0.8-6.6-1.8-9-3c-2.5-1.2-4.4-2.8-5.6-4.6
				c-1.2-1.9-1.8-4.2-1.8-7c0-2.1,0.5-4.2,1.6-6.1c1.1-1.9,2.7-3.5,4.8-4.9c2.1-1.3,4.6-2.3,7.6-3.1c3-0.7,6.5-1.1,10.5-1.1
				c3.9,0,7.4,0.4,10.5,1.1c3.2,0.8,5.9,1.8,8.2,3.2c2.4,1.4,4.2,3.2,5.5,5.3c1.3,2.1,2.1,4.4,2.2,6.9l0,0.8h-10.6
				c0,0-3.7,0.2-5.4-2.6c-0.5-0.9-1.2-1.6-2.2-2.2c-1.8-1-4.6-1.5-8.3-1.5c-6.4,0-9.7,1.4-9.7,4.2c0,0.5,0.2,1.3,1.6,2.1
				c1.4,0.8,3.7,1.5,6.9,2.1c4,0.7,7.5,1.3,10.5,2c3,0.6,5.8,1.3,8.3,2.1c1.4,0.4,2.8,1,4.1,1.7c1.4,0.7,2.6,1.6,3.5,2.6
				c1,1.1,1.7,2.3,2.3,3.8c0.6,1.5,0.9,3.2,0.9,5.3c0,2.5-0.7,4.8-2.2,6.8c-1.4,1.9-3.3,3.5-5.6,4.8c-2.3,1.2-4.9,2.2-7.9,2.9
				C517.2,70.4,514,70.7,510.7,70.7z"/>
			<path class="st2" d="M468.1,68.9h14.7L459.2,21c0,0-4.9,0-10.8,0s-7.7,4.7-7.7,4.7l-20.9,43.2h15l4.4-9.7h24.3L468.1,68.9z
				 M443.5,49.9l7.8-17l7.9,17H443.5z"/>
		</g>
		<g>
			<path class="st1" d="M170.7,70.3c-10.2,0-18.1-2.2-23.6-6.4c-5.6-4.4-8.5-10.7-8.5-18.8c0-4,0.7-7.7,2.1-10.9
				c1.4-3.2,3.6-6,6.4-8.3c2.8-2.2,6.2-3.9,10.1-5.1c3.9-1.2,8.4-1.7,13.5-1.7c5,0,9.5,0.6,13.4,1.7c4,1.2,7.4,2.9,10.1,5.2
				c2.7,2.3,4.8,5.1,6.2,8.3c1.4,3.2,2.1,6.9,2.1,11c0,8.3-2.8,14.6-8.4,18.8C188.7,68.2,180.8,70.3,170.7,70.3z M170.7,30.1
				c-5.3,0-9.4,1.3-12.2,3.8c-2.7,2.5-4.1,6.3-4.1,11.3c0,5,1.4,8.6,4.1,10.8c2.8,2.3,6.9,3.5,12.2,3.5c2.3,0,4.4-0.3,6.4-0.9
				c2-0.6,3.7-1.4,5.1-2.6c1.4-1.1,2.5-2.6,3.4-4.4c0.8-1.8,1.2-4,1.2-6.5c0-5-1.4-8.8-4-11.4C180,31.4,176,30.1,170.7,30.1z"/>
			<path class="st1" d="M126.9,68.9h-16V22.7H87c0,0,0-2.7,0-5.8c0-3.1,2.1-5.2,5.3-5.2c3.2,0,55.2,0,55.2,0v11.3h-20.6V68.9z"/>
			<path class="st1" d="M235.6,68.9h-14.4V30.7H202c0,0,0-2.8,0-5.3c0-2.6,1.8-4.3,4.4-4.3c2.7,0,48,0,48,0v10h-18.8V68.9z"/>
			<path class="st1" d="M291.2,68.9h14.7L282.3,21c0,0-4.9,0-10.8,0c-5.9,0-7.7,4.7-7.7,4.7L243,68.9h15l4.4-9.7h24.3L291.2,68.9z
				 M266.7,49.9l7.8-17l7.9,17H266.7z"/>
			<path class="st1" d="M309.5,68.9c0,0,0-39.4,0-42.3c0-2.9,2.7-5.6,6.8-5.6c4.1,0,7.6,0,7.6,0v37.7h31.7v10.2H309.5z"/>
		</g>
		<g>
			<path class="st2" d="M532.8,68.7c0-0.7,0.1-1.3,0.4-1.8c0.2-0.6,0.6-1,1-1.4c0.4-0.4,0.9-0.7,1.5-1c0.6-0.2,1.2-0.3,1.8-0.3
				c0.6,0,1.2,0.1,1.8,0.3c0.6,0.2,1,0.5,1.5,1c0.4,0.4,0.7,0.9,1,1.4c0.2,0.6,0.4,1.2,0.4,1.8c0,0.7-0.1,1.3-0.4,1.8
				c-0.2,0.6-0.6,1-1,1.4c-0.4,0.4-0.9,0.7-1.5,1c-0.6,0.2-1.2,0.3-1.8,0.3c-0.6,0-1.2-0.1-1.8-0.3c-0.6-0.2-1-0.5-1.5-1
				c-0.4-0.4-0.7-0.9-1-1.4C532.9,70,532.8,69.3,532.8,68.7z M533.9,68.7c0,0.5,0.1,1,0.2,1.4c0.2,0.4,0.4,0.8,0.7,1.1
				c0.3,0.3,0.7,0.6,1.1,0.8c0.4,0.2,0.9,0.3,1.4,0.3c0.5,0,1-0.1,1.4-0.3c0.4-0.2,0.8-0.4,1.1-0.8c0.3-0.3,0.5-0.7,0.7-1.1
				c0.2-0.4,0.2-0.9,0.2-1.4c0-0.5-0.1-1-0.2-1.4c-0.2-0.4-0.4-0.8-0.7-1.1c-0.3-0.3-0.7-0.6-1.1-0.8c-0.4-0.2-0.9-0.3-1.4-0.3
				c-0.5,0-1,0.1-1.4,0.3c-0.4,0.2-0.8,0.4-1.1,0.8c-0.3,0.3-0.5,0.7-0.7,1.1C534,67.7,533.9,68.2,533.9,68.7z M538.2,69.1l1.3,1.9
				h-1.4l-1.1-1.7h-0.2V71h-1.3v-4.6h1.8c0.3,0,0.5,0,0.8,0.1c0.2,0.1,0.5,0.1,0.7,0.2c0.2,0.1,0.3,0.3,0.5,0.4
				c0.1,0.2,0.2,0.4,0.2,0.7c0,0.3-0.1,0.6-0.3,0.9C538.9,68.8,538.6,69,538.2,69.1L538.2,69.1z M536.8,67.2v1.2h0.3
				c0.3,0,0.5,0,0.7-0.1c0.1-0.1,0.2-0.2,0.2-0.5c0-0.2-0.1-0.3-0.2-0.4c-0.1-0.1-0.3-0.2-0.6-0.2H536.8z"/>
		</g>
	</g>
</g>
</svg>
